<?xml version="1.0" encoding="UTF-8"?> <svg xmlns="http://www.w3.org/2000/svg" id="Layer_1" data-name="Layer 1" viewBox="0 0 48 48" width="512" height="512"><path d="M10.942,27.08a45.308,45.308,0,0,0-4.626-.439c-.679-.042-1.574.312-1.729,2.024a3.965,3.965,0,0,0,.123,1.28,2.224,2.224,0,0,0,1.853,1.691l6.619.932a.6.6,0,0,0,.1.008.75.75,0,0,0,.664-1.1C11.769,27.335,11.211,27.163,10.942,27.08Zm-4.17,3.071a.735.735,0,0,1-.605-.561,2.544,2.544,0,0,1-.086-.789,1.581,1.581,0,0,1,.151-.658l.021,0c1.71.107,3.633.262,4.154.354a18.122,18.122,0,0,1,1.506,2.381Z"></path><path d="M41.683,26.641a45.308,45.308,0,0,0-4.626.439c-.269.083-.828.255-3.008,4.4a.75.75,0,0,0,.664,1.1.6.6,0,0,0,.1-.008l6.619-.932a2.224,2.224,0,0,0,1.853-1.691,3.984,3.984,0,0,0,.123-1.28C43.256,26.953,42.356,26.6,41.683,26.641Zm.149,2.949a.735.735,0,0,1-.605.561l-5.141.724a18.293,18.293,0,0,1,1.505-2.381c.53-.093,2.455-.248,4.164-.354a1.371,1.371,0,0,1,.163.661A2.541,2.541,0,0,1,41.832,29.59Z"></path><path d="M34.382,27.778a.752.752,0,0,0-.68-.318c-.069.006-6.958.6-9.7.6s-9.632-.6-9.7-.6a.749.749,0,0,0-.743,1.066l1.975,4.191a.753.753,0,0,0,.635.429l7.829.448,7.841-.448a.751.751,0,0,0,.635-.429l1.975-4.191A.747.747,0,0,0,34.382,27.778Zm-3.078,3.9L24,32.1l-7.3-.422-1.231-2.612c2.159.176,6.439.5,8.534.5s6.376-.324,8.536-.5Z"></path><path d="M28.311,4.994l1.106.414A2.7,2.7,0,0,1,31,6.99L31.414,8.1a.749.749,0,0,0,1.4,0l.414-1.106a2.705,2.705,0,0,1,1.582-1.582l1.106-.414a.749.749,0,0,0,0-1.4l-1.106-.414h0a2.7,2.7,0,0,1-1.582-1.583L32.818.487a.749.749,0,0,0-1.4,0L31,1.593a2.7,2.7,0,0,1-1.582,1.583l-1.106.414a.749.749,0,0,0,0,1.4Zm3.805-2.261a4.192,4.192,0,0,0,1.558,1.559,4.185,4.185,0,0,0-1.558,1.559,4.2,4.2,0,0,0-1.559-1.559A4.2,4.2,0,0,0,32.116,2.733Z"></path><path d="M36.743,9.649l.838.314a1.868,1.868,0,0,1,1.093,1.094l.314.838a.75.75,0,0,0,1.405,0l.313-.838A1.869,1.869,0,0,1,41.8,9.963l.838-.314a.75.75,0,0,0,0-1.4L41.8,7.931h0a1.857,1.857,0,0,1-1.092-1.092L40.393,6a.75.75,0,0,0-1.405,0l-.314.839a1.866,1.866,0,0,1-1.093,1.093l-.839.314a.749.749,0,0,0,0,1.4ZM39.69,8.1a3.344,3.344,0,0,0,.843.843,3.389,3.389,0,0,0-.843.842,3.369,3.369,0,0,0-.842-.842A3.34,3.34,0,0,0,39.69,8.1Z"></path><path d="M41.428,4.994l.838.314A1.866,1.866,0,0,1,43.359,6.4l.314.838a.75.75,0,0,0,1.405,0l.314-.838a1.864,1.864,0,0,1,1.092-1.093l.839-.314a.749.749,0,0,0,0-1.4l-.838-.315h0a1.863,1.863,0,0,1-1.092-1.092l-.314-.839a.75.75,0,0,0-1.405,0l-.314.839a1.864,1.864,0,0,1-1.093,1.092l-.839.315a.749.749,0,0,0,0,1.4ZM44.375,3.45a3.4,3.4,0,0,0,.842.842,3.4,3.4,0,0,0-.842.842,3.369,3.369,0,0,0-.842-.842A3.385,3.385,0,0,0,44.375,3.45Z"></path><path d="M45.811,42.371a.75.75,0,0,0-.75.75v3.114a.265.265,0,0,1-.265.265H40.9a.265.265,0,0,1-.265-.265V44.951a.75.75,0,0,0-1.5,0v1.284A1.767,1.767,0,0,0,40.9,48h3.9a1.767,1.767,0,0,0,1.765-1.765V43.121A.75.75,0,0,0,45.811,42.371Z"></path><path d="M8.062,44.2a.75.75,0,0,0-.75.75v1.284a.265.265,0,0,1-.264.265h-3.9a.265.265,0,0,1-.264-.265V43.121a.75.75,0,0,0-1.5,0v3.114A1.766,1.766,0,0,0,3.146,48h3.9a1.766,1.766,0,0,0,1.764-1.765V44.951A.75.75,0,0,0,8.062,44.2Z"></path><path d="M46.429,18.855l-2.5-.432a1.634,1.634,0,0,0-1.8.967l-.135.3L40.222,15.51a6.084,6.084,0,0,0-4.668-3.664A74.749,74.749,0,0,0,24,11a74.749,74.749,0,0,0-11.554.847A6.084,6.084,0,0,0,7.778,15.51L6,19.694,5.874,19.4a1.639,1.639,0,0,0-1.8-.978l-2.5.433A1.736,1.736,0,0,0,.122,20.568v.491a1.744,1.744,0,0,0,1.362,1.7l2.374.536L2.806,24.9a8.488,8.488,0,0,0-1.395,4.67V38.1c0,3.219,2.242,5.3,5.714,5.3h33.75c3.472,0,5.714-2.08,5.714-5.3V29.566a8.488,8.488,0,0,0-1.395-4.67l-1.052-1.6,2.366-.534a1.746,1.746,0,0,0,1.369-1.7v-.491A1.735,1.735,0,0,0,46.429,18.855ZM1.807,21.291a.237.237,0,0,1-.185-.232v-.491a.233.233,0,0,1,.2-.234L4.333,19.9A.148.148,0,0,1,4.5,20l.613,1.386-.374.57ZM45.089,35.77H4.812a.75.75,0,0,0,0,1.5H45.089V38.1c0,2.378-1.575,3.8-4.214,3.8H7.125c-2.639,0-4.214-1.421-4.214-3.8V29.566A7,7,0,0,1,4.06,25.718l2.364-3.606H39.145a.75.75,0,0,0,0-1.5H7.243L9.159,16.1a4.588,4.588,0,0,1,3.522-2.768A73.024,73.024,0,0,1,24,12.5a73.024,73.024,0,0,1,11.319.829A4.588,4.588,0,0,1,38.841,16.1l2.192,5.167a.669.669,0,0,0,.063.118l2.844,4.337a7,7,0,0,1,1.149,3.848Zm1.288-14.711a.239.239,0,0,1-.191.234l-2.922.66-.374-.57.617-1.4a.151.151,0,0,1,.163-.086l2.506.434a.233.233,0,0,1,.2.234Z"></path></svg> 