<?xml version="1.0" encoding="UTF-8"?> <svg xmlns="http://www.w3.org/2000/svg" xmlns:xlink="http://www.w3.org/1999/xlink" width="79.399" height="71.646" viewBox="0 0 79.399 71.646"><defs><clipPath id="clip-path"><rect id="Rectangle_53" data-name="Rectangle 53" width="79.399" height="71.646" fill="none"></rect></clipPath></defs><g id="Group_446" data-name="Group 446" clip-path="url(#clip-path)"><path id="Path_73" data-name="Path 73" d="M121.441,26.921l9.133,3.8a14.153,14.153,0,0,0,5.439,1.091A14.446,14.446,0,0,0,146.5,27.243l10.47,4.348a1.163,1.163,0,0,0,.892-2.148l-9.875-4.1a14.315,14.315,0,0,0,2.2-5.953l13.783,5.725.261.106.219.089-.276.662a2.285,2.285,0,0,0-.02,1.847,2.345,2.345,0,0,0,1.292,1.212l3.163,1.314a2.037,2.037,0,0,0,1.622.043,2.131,2.131,0,0,0,1.117-1.253l.219-.529.006-.014a.271.271,0,0,1,.285-.2l3.812,1.583a2.74,2.74,0,0,1,1.537,3.868c-.519,1.249-2,2.811-3.967,2l-10.322-4.29a1.163,1.163,0,1,0-.893,2.148l10.323,4.291a5.124,5.124,0,0,0,1.973.408,5.678,5.678,0,0,0,5.034-3.66,5.513,5.513,0,0,0,.215-3.832,5.015,5.015,0,0,0-3.007-3.077l-3.891-1.616a2.588,2.588,0,0,0-1.868.066,2.558,2.558,0,0,0-1.387,1.443l-.156.376-2.923-1.214-.019-.008,0-.009.4-.956a1.95,1.95,0,0,0,.047-1.544,2.672,2.672,0,0,0-1.671-1.3l-.234-.095L150.3,16.914a14.29,14.29,0,0,0-8.782-12.57l-9.133-3.8a7.182,7.182,0,0,0-9.365,3.874l-5.452,13.132h0a7.178,7.178,0,0,0,3.872,9.368m-1.723-8.477L125.17,5.312A4.856,4.856,0,0,1,131.494,2.7l9.133,3.8a11.965,11.965,0,0,1,7.362,11.094,1.164,1.164,0,0,0,0,.182,11.956,11.956,0,0,1-2.68,7.308c-.02.023-.039.046-.058.071a12.012,12.012,0,0,1-13.784,3.423l-9.133-3.8a4.849,4.849,0,0,1-2.615-6.329" transform="translate(-103.411 0)"></path><path id="Path_74" data-name="Path 74" d="M185.832,81.287a4.56,4.56,0,0,0,5.956-2.457l2.4-5.773a4.559,4.559,0,1,0-8.421-3.5l-2.392,5.77a4.561,4.561,0,0,0,2.459,5.957m-.312-5.062v0l2.393-5.77a2.243,2.243,0,0,1,2.069-1.377,2.217,2.217,0,0,1,.848.169,2.242,2.242,0,0,1,1.207,2.921l-2.4,5.774a2.231,2.231,0,0,1-4.119-1.714" transform="translate(-161.735 -58.987)"></path><path id="Path_75" data-name="Path 75" d="M79.315,365.71a4.059,4.059,0,0,0-1.776-2.681,5.2,5.2,0,0,0-3.731-.606l-18.546,2.851a11.875,11.875,0,0,1-4.315-.327c-.542-.108-1.1-.219-1.7-.315L37.7,362.043c-1.577-.527-1.449-1.642-1.371-1.974a1.61,1.61,0,0,1,1.888-1.225l.029,0c1.491.188,2.447.274,3.658.384.665.06,1.419.128,2.368.224a9.471,9.471,0,0,0,.953.049c3.524,0,5.483-2.134,5.874-4.407.454-2.637-1.1-5.8-4.953-6.739l-.066-.014-4.995-.917c-4.9-.894-8.437-.182-15.35,1.381L13.746,351.52A3.146,3.146,0,0,0,10.6,348.4H3.143A3.146,3.146,0,0,0,0,351.542V359.1a1.163,1.163,0,1,0,2.326,0v-7.554a.817.817,0,0,1,.816-.817H10.6a.817.817,0,0,1,.816.817v19.6a.817.817,0,0,1-.816.817H3.143a.817.817,0,0,1-.816-.817v-6.429a1.163,1.163,0,1,0-2.326,0v6.429a3.146,3.146,0,0,0,3.142,3.143H10.6a3.146,3.146,0,0,0,3.14-3.077l11.8,3L39.278,377.7a15.079,15.079,0,0,0,4.331.613,15.951,15.951,0,0,0,3.366-.358L74.919,371.9a5.7,5.7,0,0,0,3.614-2.429,5.171,5.171,0,0,0,.782-3.761m-4.889,3.917-27.943,6.058a13.244,13.244,0,0,1-6.546-.212l-.057-.016-13.76-3.5h0l-12.372-3.142V353.9l12.506-2.829c7.092-1.6,10.173-2.137,14.418-1.362l4.959.911c1.855.466,3.537,2.01,3.181,4.078-.235,1.366-1.486,2.724-4.3,2.438-.962-.1-1.722-.165-2.393-.226-1.185-.107-2.121-.192-3.563-.373a3.914,3.914,0,0,0-4.486,3,3.8,3.8,0,0,0,.4,2.775,4.431,4.431,0,0,0,2.577,1.96c.033.01.066.02.1.027l11.631,2.61.074.014c.569.089,1.118.2,1.648.3a13.873,13.873,0,0,0,5.122.344l18.556-2.853.018,0c1.578-.268,2.616.254,2.843,1.433a3.151,3.151,0,0,1-2.605,3.476" transform="translate(-0.001 -306.672)"></path></g></svg> 