<?xml version="1.0" encoding="UTF-8"?> <svg xmlns="http://www.w3.org/2000/svg" xmlns:xlink="http://www.w3.org/1999/xlink" width="64" height="72" viewBox="0 0 64 72"><defs><clipPath id="clip-path"><rect id="Rectangle_52" data-name="Rectangle 52" width="64" height="72" transform="translate(0 0)" fill="none"></rect></clipPath></defs><g id="Group_443" data-name="Group 443" transform="translate(0 0.039)"><g id="Group_442" data-name="Group 442" transform="translate(0 -0.039)" clip-path="url(#clip-path)"><path id="Path_65" data-name="Path 65" d="M311.4,0A1.4,1.4,0,0,0,310,1.4V7.831a1.4,1.4,0,1,0,2.8,0V1.4A1.4,1.4,0,0,0,311.4,0" transform="translate(-266.647 0.044)"></path><path id="Path_66" data-name="Path 66" d="M81.4,312a1.4,1.4,0,1,0,1.4,1.4,1.4,1.4,0,0,0-1.4-1.4" transform="translate(-68.812 -268.324)"></path><path id="Path_67" data-name="Path 67" d="M64.33,132.012a5.6,5.6,0,0,0-5.594-5.594H48.3a35.119,35.119,0,0,0,2.144-13.35,15.927,15.927,0,0,0-.1-1.608,5.593,5.593,0,0,0-11.184.134v1.4c0,8.845-11.358,13.814-19.929,15.945a4.2,4.2,0,0,0-3.845-2.52H1.4a1.4,1.4,0,0,0-1.4,1.4v33.563a1.4,1.4,0,0,0,1.4,1.4H15.383a4.2,4.2,0,0,0,3.832-2.491q1.065.273,1.977.513a45.358,45.358,0,0,0,14.114,1.978H50.345a5.591,5.591,0,0,0,4.647-8.7A5.61,5.61,0,0,0,57.8,145.68a5.592,5.592,0,0,0,2.787-8.387,5.6,5.6,0,0,0,3.744-5.281M16.782,158.582a1.4,1.4,0,0,1-1.4,1.4H2.8V129.215H15.383a1.4,1.4,0,0,1,1.4,1.4Zm41.954-23.774H51.743a1.4,1.4,0,1,0,0,2.8h4.2a2.8,2.8,0,0,1,0,5.594H48.946a1.4,1.4,0,1,0,0,2.8h4.2a2.8,2.8,0,1,1,0,5.594H46.149a1.4,1.4,0,0,0,0,2.8h4.2a2.8,2.8,0,0,1,0,5.594H35.306A42.664,42.664,0,0,1,21.9,158.094q-1.057-.276-2.32-.6V131.735c10.12-2.411,22.375-8.295,22.375-18.743v-1.4a2.8,2.8,0,0,1,5.594,0v0c0,.608.759,8.067-2.283,14.824H40.556a1.4,1.4,0,1,0,0,2.8h18.18a2.8,2.8,0,1,1,0,5.594" transform="translate(0 -91.132)"></path><path id="Path_68" data-name="Path 68" d="M81.4,352a1.4,1.4,0,0,0-1.4,1.4v11.188a1.4,1.4,0,1,0,2.8,0V353.4a1.4,1.4,0,0,0-1.4-1.4" transform="translate(-68.812 -302.73)"></path><path id="Path_69" data-name="Path 69" d="M196.992,126H191.4a1.4,1.4,0,0,0,0,2.8h5.594a1.4,1.4,0,1,0,0-2.8" transform="translate(-163.429 -108.336)"></path><path id="Path_70" data-name="Path 70" d="M396.992,126H391.4a1.4,1.4,0,0,0,0,2.8h5.594a1.4,1.4,0,0,0,0-2.8" transform="translate(-335.46 -108.336)"></path><path id="Path_71" data-name="Path 71" d="M372.912,41.56a1.4,1.4,0,0,0-1.978,0l-3.955,3.955a1.4,1.4,0,1,0,1.978,1.978l3.955-3.955a1.4,1.4,0,0,0,0-1.978" transform="translate(-315.307 -35.352)"></path><path id="Path_72" data-name="Path 72" d="M231.492,45.515l-3.955-3.955a1.4,1.4,0,1,0-1.978,1.978l3.955,3.955a1.4,1.4,0,0,0,1.978-1.978" transform="translate(-193.664 -35.352)"></path></g></g></svg> 